<?xml version="1.0" encoding="UTF-8" standalone="no"?>
<!-- Created with Inkscape (http://www.inkscape.org/) -->

<svg
   width="400"
   height="12"
   viewBox="0 0 105.83333 3.175"
   version="1.1"
   id="svg1"
   xmlns="http://www.w3.org/2000/svg"
   xmlns:svg="http://www.w3.org/2000/svg">
  <defs
     id="defs1" />
  <g
     id="layer1">
    <g
       id="g1"
       transform="matrix(0.68204627,0,0,0.68204627,-49.361256,-90.414987)">
      <path
         id="path33"
         d="m 151.99313,134.89186 c 0,-1.11468 -0.90402,-2.01913 -2.0187,-2.01913 -1.11553,0 -2.01913,0.90445 -2.01913,2.01913 0,1.1151 0.9036,2.01912 2.01913,2.01912 1.11468,0 2.0187,-0.90402 2.0187,-2.01912"
         style="fill:#ffffff;fill-opacity:1;fill-rule:nonzero;stroke:#ffffff;stroke-width:0.0426426;stroke-opacity:1" />
      <path
         id="path34"
         d="m 155.9896,134.89186 c 0,-0.67802 -0.55009,-1.22811 -1.22811,-1.22811 -0.67845,0 -1.22811,0.55009 -1.22811,1.22811 0,0.67844 0.54966,1.22853 1.22811,1.22853 0.67802,0 1.22811,-0.55009 1.22811,-1.22853"
         style="fill:#ffffff;fill-opacity:1;fill-rule:nonzero;stroke:#ffffff;stroke-width:0.0426426;stroke-opacity:1" />
      <path
         id="path35"
         d="m 158.75795,134.89186 c 0,-0.33901 -0.27504,-0.61406 -0.61405,-0.61406 -0.33943,0 -0.61405,0.27505 -0.61405,0.61406 0,0.339 0.27462,0.61448 0.61405,0.61448 0.33901,0 0.61405,-0.27548 0.61405,-0.61448"
         style="fill:#ffffff;fill-opacity:1;fill-rule:nonzero;stroke:#ffffff;stroke-width:0.0426426;stroke-opacity:1" />
      <path
         id="path36"
         d="m 227.52129,134.89186 c 0,-0.33901 -0.27504,-0.61406 -0.61448,-0.61406 -0.339,0 -0.61362,0.27505 -0.61362,0.61406 0,0.339 0.27462,0.61448 0.61362,0.61448 0.33944,0 0.61448,-0.27548 0.61448,-0.61448"
         style="fill:#ffffff;fill-opacity:1;fill-rule:nonzero;stroke:#ffffff;stroke-width:0.0426426;stroke-opacity:1" />
      <path
         id="path37"
         d="M 226.71961,134.89186 H 158.1439"
         style="fill:#ffffff;fill-opacity:1;stroke:#ffffff;stroke-width:0.617862;stroke-linecap:round;stroke-linejoin:round;stroke-miterlimit:10;stroke-dasharray:none;stroke-opacity:1" />
      <path
         id="path38"
         d="m 143.92515,134.89186 c 0,-0.67802 0.54966,-1.22811 1.22811,-1.22811 0.67844,0 1.2281,0.55009 1.2281,1.22811 0,0.67844 -0.54966,1.22853 -1.2281,1.22853 -0.67845,0 -1.22811,-0.55009 -1.22811,-1.22853"
         style="fill:#ffffff;fill-opacity:1;fill-rule:nonzero;stroke:#ffffff;stroke-width:0.0426426;stroke-opacity:1" />
      <path
         id="path39"
         d="m 141.15679,134.89186 c 0,-0.33901 0.27504,-0.61406 0.61405,-0.61406 0.33901,0 0.61406,0.27505 0.61406,0.61406 0,0.339 -0.27505,0.61448 -0.61406,0.61448 -0.33901,0 -0.61405,-0.27548 -0.61405,-0.61448"
         style="fill:#ffffff;fill-opacity:1;fill-rule:nonzero;stroke:#ffffff;stroke-width:0.0426426;stroke-opacity:1" />
      <path
         id="path40"
         d="m 72.39362,134.89186 c 0,-0.33901 0.274874,-0.61406 0.614011,-0.61406 0.339307,0 0.614309,0.27505 0.614309,0.61406 0,0.339 -0.275002,0.61448 -0.614309,0.61448 -0.339137,0 -0.614011,-0.27548 -0.614011,-0.61448"
         style="fill:#ffffff;fill-opacity:1;fill-rule:nonzero;stroke:#ffffff;stroke-width:0.0426426;stroke-opacity:1" />
      <path
         id="path41"
         d="M 73.195173,134.89186 H 141.77084"
         style="fill:#ffffff;fill-opacity:1;stroke:#ffffff;stroke-width:0.617862;stroke-linecap:round;stroke-linejoin:round;stroke-miterlimit:10;stroke-dasharray:none;stroke-opacity:1" />
    </g>
  </g>
</svg>
