<svg width="700" height="125" viewBox="0 0 700 125" fill="none" xmlns="http://www.w3.org/2000/svg">
<g clip-path="url(#clip0_2005_181)">
<path d="M579.043 34.7348C578.255 34.4242 577.849 33.8347 578.279 33.1549C578.86 32.2041 580.75 31.0424 582.333 30.7841C584.755 30.3698 587.315 30.9406 589.77 30.9713C593.232 31.0719 596.436 30.8108 600.047 31.0758C602.295 31.2922 604.463 31.8307 606.583 32.0351C608.498 32.2195 610.367 32.5567 612.203 32.6465C613.03 32.6939 613.879 32.7186 614.662 32.5699C615.433 32.4336 616.131 32.1313 616.875 32.0229L617.131 32.0058L618.494 31.9113L618.922 32.6309C619.16 33.0287 619.327 33.7705 619.158 34.2752C619.005 34.7624 618.786 34.9039 618.614 35.0134C618.256 35.2002 617.901 35.229 617.546 35.2257C617.197 35.2114 616.857 35.1137 616.605 34.8676C616.338 34.6527 616.228 34.1714 616.108 33.9672C616.13 33.9542 616.004 33.9266 616.142 33.9603L616.634 34.0675C616.878 34.1075 616.969 34.1002 616.988 34.099C616.988 34.099 616.703 34.1335 616.098 34.553L618.213 35.4306C616.884 36.0498 614.914 36.1529 613.747 36.1539C611.525 36.1863 609.426 35.857 607.368 35.5836C604.902 35.2478 602.52 34.7376 600.197 34.3991C597.935 34.0356 595.519 34.0191 593.082 33.9299C591.035 33.8818 589.028 34.0641 587.043 34.246C585.155 34.4095 583.285 34.6002 581.429 34.9089C580.51 35.0626 579.659 34.9768 579.043 34.7348Z" fill="#A28D66"/>
<path d="M42.7644 81.7999C41.2921 85.5174 39.2636 88.1021 37.6114 89.9323C35.9985 91.8177 34.5861 92.8567 33.9116 93.442C32.423 94.4923 33.4711 93.2694 36.8754 88.7227C37.4351 87.9125 38.0982 87.0601 38.6176 86.0196C39.1975 85.0144 39.8128 83.9359 40.2393 82.6954C41.2012 80.2945 41.8714 77.3665 41.2035 74.365C39.9137 68.2374 33.857 63.1723 27.2799 58.842C20.6413 54.3489 12.8883 50.6122 6.03124 44.7813C4.3335 43.3034 2.75334 41.5517 1.49215 39.4627C0.228194 37.3602 -0.340463 34.5825 0.118919 32.0751C0.518394 29.4943 1.82674 27.4634 3.15341 25.6378C4.56158 23.7929 6.41998 22.3458 8.38092 21.2412C11.4617 19.6458 14.8656 19.0916 18.1083 19.0699C21.3679 19.056 24.544 19.5222 27.6139 20.243C33.7618 21.69 39.58 23.9677 45.2451 26.497C50.9108 29.0359 56.4206 31.8734 61.8951 34.7236C67.4524 37.526 72.6456 40.5964 78.5023 42.1814C101.922 49.6807 127.051 51.0383 151.924 52.3751L164.85 53.1256C169.187 53.3984 173.461 53.8132 177.709 53.8712C186.253 54.0252 194.828 53.3001 203.398 52.3795C211.978 51.471 220.559 50.2926 229.262 49.6749C237.962 49.028 246.677 49.0181 255.362 49.1784C272.728 49.4944 290.047 50.6409 307.243 49.5277C324.636 48.5148 341.96 48.3202 359.289 47.8311C404.061 46.688 449.428 45.8671 493.553 43.0515C503.531 42.3377 513.532 41.6177 523.427 40.3887L530.826 39.3915L538.02 37.8718C542.932 36.4921 547.962 35.5037 552.995 34.8501C558.029 34.1779 563.052 33.7761 568.023 33.2616C573.026 32.7305 577.924 32.3206 582.302 30.4632C586.714 28.7071 590.444 25.5239 594.254 22.2668C598.079 18.9816 601.993 15.8255 605.968 12.7144C609.571 9.93601 613.325 7.22365 617.428 4.94244C621.516 2.68554 626.041 0.823349 630.928 0.397542C635.799 -0.0799718 640.852 1.25376 644.888 3.88244C649.015 6.51348 652.097 9.98938 655.265 13.1067C661.426 19.2466 667.611 25.4629 675.477 28.6097C679.411 30.3105 683.643 31.6909 687.724 33.8544C689.755 34.9318 691.757 36.2467 693.504 37.8589C695.22 39.4117 696.84 41.1708 698.134 43.2783C699.919 46.0267 700.558 49.7555 699.538 52.672C698.632 55.6129 696.944 57.7579 695.424 59.6396C692.276 63.3327 689.356 66.1232 687.281 68.8257C682.972 74.1378 682.401 78.7435 682.278 80.8483C682.167 82.9817 681.714 82.879 681.191 80.1104C680.975 78.7287 680.971 76.6217 681.696 74.0235C682.401 71.4198 684.007 68.4763 686.293 65.4741C688.018 63.1575 690.264 60.7205 692.449 58.0027C694.578 55.3146 696.795 52.1187 696.384 48.8585C696.019 45.6044 693.067 42.224 689.762 39.5724C686.426 36.9792 682.075 35.303 677.587 33.5103C675.338 32.6094 673.024 31.6753 670.755 30.4922C668.458 29.3079 666.333 27.8582 664.353 26.3395C660.382 23.2766 656.916 19.8342 653.64 16.5285C650.373 13.232 647.264 9.90767 644.184 7.5807C641.013 5.23573 637.509 4.06733 634.248 3.84862C629.558 3.44285 624.776 5.0388 620.378 7.3297C615.95 9.62529 611.793 12.6049 607.738 15.7451C603.677 18.9255 599.678 22.1733 595.754 25.5492C591.84 28.8932 587.449 32.4682 582.133 34.2418C579.523 35.156 576.835 35.7115 574.164 36.0557C571.562 36.3833 568.961 36.6542 566.368 36.911C561.181 37.418 556.036 37.8571 550.977 38.634C548.447 39.0224 545.936 39.4828 543.448 40.0509C540.954 40.6144 538.564 41.3714 535.877 41.8607C530.625 43.133 525.444 43.5431 520.226 44.271C495.208 46.7736 470.182 47.7946 445.148 48.7625C420.117 49.6738 395.079 50.2973 370.043 50.8671L332.495 51.736C326.242 51.8961 319.976 52.0589 313.763 52.3345C307.598 52.6422 301.198 53.1158 294.933 53.0975C269.762 53.2936 244.765 50.4985 220 53.4857C209.475 54.5962 198.948 56.0465 188.3 56.6277C182.975 56.9071 177.625 56.9631 172.274 56.6276L156.489 55.6678C135.472 54.5476 114.225 53.9318 93.2722 49.6731C88.3037 48.6675 83.3721 47.4522 78.5095 45.9787C76.1101 45.1997 73.6282 44.5511 71.1987 43.4681C68.822 42.4374 66.5608 41.3074 64.3033 40.1752C55.3255 35.6191 46.4956 30.9373 37.2618 27.3877C32.6514 25.648 27.9482 24.1252 23.1916 23.4215C18.4826 22.6828 13.5693 22.8405 9.75741 25.0188C7.86472 26.094 6.2822 27.663 5.17761 29.6215C4.06809 31.515 3.5284 33.5013 4.00124 35.4228C4.9542 39.3696 9.05747 42.6399 12.9238 45.452C20.9097 51.0202 29.3437 55.4459 35.738 61.2954C38.9131 64.1952 41.6271 67.5244 42.9577 71.2832C44.3196 75.0441 43.8992 78.9301 42.7644 81.7999Z" fill="#A28D66"/>
<path d="M675.453 80.0564C669.475 76.8197 664.515 77.652 662.951 77.7593C662.115 77.7953 662.006 77.6644 662.784 77.336C663.555 77.0215 665.229 76.3615 668.034 76.3461C671.878 76.2157 677.482 77.8057 682.393 82.1106C687.222 86.3522 691.681 92.9594 692.799 101.111C693.338 105.128 692.952 109.627 690.891 113.571C688.952 117.596 685.314 120.645 681.421 122.556C677.53 124.449 673.156 125.47 668.786 125.186C664.411 124.951 660.381 123.335 656.994 121.422C651.742 118.502 647.258 114.824 642.428 112.023C637.805 109.167 632.378 108.127 626.708 107.763C621.041 107.375 615.171 107.625 609.144 107.003C603.198 106.288 597.374 105.176 591.589 103.789C568.538 98.152 546.605 88.4703 523.234 85.3811C507.277 83.1953 490.801 86.7706 474.266 85.7524C457.872 85.4435 441.39 85.5819 424.889 84.5218C392.079 81.7953 359.169 81.0524 326.321 82.1616C315.71 82.5938 305.06 82.8627 294.541 84.0957C283.987 85.3004 273.453 87.0669 262.831 88.4218C241.435 91.6061 219.941 88.9042 199.198 90.4509C180.217 91.8162 161.21 93.1743 142.295 95.2953C132.842 96.3697 123.41 97.6122 114.037 99.1598C104.68 100.874 95.0906 102.042 85.7045 103.246C77.2407 104.389 68.6597 105.685 60.4261 108.087C56.335 109.286 52.2682 110.776 48.5418 112.598C44.9607 114.508 41.6737 117.352 38.0533 119.766C34.5545 122.07 30.4867 124.421 25.6785 124.305C23.3197 124.208 21.0466 123.552 18.9997 122.346C16.9574 121.135 15.3182 119.355 14.1148 117.431C11.7005 113.54 10.7017 109.254 9.75804 105.154C8.85805 101.117 7.81475 96.8657 7.52586 92.4807C7.0332 86.6316 7.99139 81.1599 10.0472 76.8648C12.0738 72.5363 15.0412 69.5075 17.7717 67.4615C23.3332 63.4094 27.6322 62.2053 29.6063 61.7183C31.6129 61.2527 31.4842 61.7112 29.348 62.9721C27.2606 64.2526 22.9215 66.2858 18.197 70.8589C16.4605 72.6473 14.6215 74.8916 13.2893 77.7622C11.9424 80.6161 11.1454 84.0665 11.0344 87.8414C10.904 91.6174 11.4347 95.6921 12.397 99.8416C13.4045 104.143 14.1882 108.604 15.7951 112.542C17.3578 116.503 20.0603 119.647 23.9272 120.408C27.65 121.326 31.5942 119.677 35.1091 117.431C38.6813 115.198 41.9187 112.42 45.6004 110.229C49.4326 108.082 52.9707 106.858 56.3586 105.708C65.9635 102.565 75.8723 101.047 85.6659 99.7458L100.316 97.8455C105.167 97.1909 109.962 96.3205 114.876 95.5171C134.427 92.3741 154.133 90.4341 173.877 88.8862L191.668 87.5729C197.571 87.1597 203.562 86.6907 209.562 86.6185C221.532 86.4087 233.407 87.0195 245.185 86.596C256.936 86.2765 268.611 84.2409 280.403 82.6122C286.294 81.7694 292.211 80.9718 298.169 80.3889C304.143 79.7817 310.123 79.5481 316.055 79.2763C339.857 78.2504 363.701 78.1898 387.515 79.1554C399.411 79.6256 411.339 80.4066 423.175 81.3887C434.981 82.2451 446.851 82.4442 458.737 82.5967L473.85 82.8063C478.926 82.9212 483.831 83.0541 488.82 82.7672C498.775 82.3272 508.828 81.1501 519.057 81.875C539.448 83.6821 558.519 90.7204 577.672 96.3205C586.78 98.9707 595.94 101.412 605.246 102.713C614.401 104.377 623.931 102.919 633.8 104.708C636.243 105.178 638.698 105.835 641.035 106.87C643.4 107.942 645.468 109.224 647.514 110.541C651.576 113.189 655.361 116.068 659.372 118.241C663.363 120.441 667.668 121.694 672.016 121.292C676.302 120.829 680.769 119.212 684.006 116.447C687.335 113.766 689.06 109.805 689.522 105.861C689.908 101.864 689.102 97.9156 687.737 94.4532C684.93 87.4949 680.042 82.506 675.453 80.0564Z" fill="#A28D66"/>
<path d="M652.71 54.9199C652.401 53.9582 652.137 53.0755 653.357 53.2099C654.044 53.3056 655.196 53.934 655.948 55.2534L657.042 57.1741L654.322 57.0691C652.66 57.0038 650.524 56.5466 649.063 55.4659C647.051 54.1353 645.55 52.1558 644.514 50.1138C643.49 48.0497 642.813 45.926 642.106 43.8548C640.224 38.1317 638.961 32.3241 637.121 26.8576C635.928 23.3665 634.599 19.8134 632.25 17.243C630.21 14.8736 627.579 13.1724 624.537 12.3792C623.865 12.1666 623.159 12.0116 622.433 11.9434C621.715 11.833 620.995 11.7411 620.27 11.7909C618.866 11.7697 617.477 12.0642 616.029 12.0787C612.196 12.3678 610.924 10.2463 613.358 9.08421C615.18 8.06266 619.92 8.02389 622.583 8.44793C626.372 8.94568 630.268 10.497 633.133 13.254C636.667 16.4936 638.586 20.8196 639.939 24.952C641.317 29.1326 642.171 33.3471 643.257 37.433C644.186 40.8754 645.324 44.2275 646.964 47.1321C648.473 49.9254 650.535 52.1766 653.236 53.2823C653.864 53.5404 654.49 53.7342 655.018 54.0196L653.002 56.2714C652.935 55.7697 652.833 55.3316 652.71 54.9199Z" fill="#A28D66"/>
<path d="M595.369 31.6484C594.396 31.4311 594.327 30.7501 594.552 30.1072C594.776 29.2568 595.359 28.0001 596.197 27.3404C597.445 26.3709 599.251 25.8411 600.649 24.7878C602.538 23.3603 604.376 21.5021 606.251 20.0326C607.418 19.0572 608.682 18.1238 609.719 16.9797C610.657 15.9457 611.729 15.0276 612.768 14.0655C613.237 13.6314 613.745 13.2076 614.159 12.7173C614.56 12.2394 614.891 11.6886 615.426 11.3198C616.863 10.3343 618.634 11.8873 618.402 13.1271C618.227 14.0701 616.768 15.1262 616.013 15.8209C614.932 16.8068 613.809 17.7621 612.739 18.8019C611.452 20.0505 610.075 21.2401 608.616 22.3536C607.083 23.4851 605.784 24.3836 604.386 25.5452C603.221 26.4893 602.182 27.5789 601.031 28.5778C599.932 29.5268 598.781 30.4047 597.466 31.2447C596.83 31.6595 595.994 31.8005 595.369 31.6484Z" fill="#A28D66"/>
<path d="M608.2 29.0316C607.583 28.8146 607.227 28.2539 607.266 27.5927C607.327 26.6856 607.776 25.549 608.419 25.047C609.398 24.3235 610.886 24.1029 611.994 23.3503C613.509 22.287 614.806 20.917 616.168 19.6533C617.045 18.8353 618.042 18.1166 618.806 17.2079C619.496 16.3874 620.314 15.6938 621.046 14.9419C621.378 14.6046 621.746 14.2738 621.976 13.8772C622.226 13.4892 622.335 13.0539 622.654 12.767C623.365 12.1529 625.712 12.6222 625.902 13.8799C626.02 14.9371 624.829 16.0144 624.259 16.6377C623.408 17.4658 622.556 18.2998 621.709 19.1228C619.719 21.1215 617.471 22.7836 615.288 24.514C614.358 25.2444 613.538 26.0999 612.627 26.8672C611.744 27.588 610.817 28.2364 609.796 28.8562C609.295 29.1607 608.69 29.2082 608.2 29.0316Z" fill="#A28D66"/>
<path d="M614.718 31.1204C614.15 31.0058 613.569 30.6455 613.386 30.0296C613.128 29.1609 613.488 27.8123 614.089 27.2641C615.019 26.4002 616.465 26.2065 617.51 25.4849C618.948 24.4934 620.214 23.2549 621.554 22.1446C622.419 21.4287 623.402 20.8366 624.171 20.0407C624.865 19.3232 625.68 18.7498 626.41 18.1218C626.758 17.843 627.074 17.565 627.327 17.2255C627.548 16.8996 627.655 16.4986 627.896 16.3342C628.182 16.061 628.717 16.6317 629.487 16.2596C630.135 15.9913 631.038 15.7887 631.223 17.112C631.329 18.5637 629.991 19.595 629.439 20.0926C628.586 20.8788 627.694 21.5016 626.872 22.213C624.895 23.9097 622.717 25.2627 620.677 26.7799C619.812 27.4226 619.075 28.2049 618.275 28.913C617.524 29.5831 616.721 30.1949 615.981 30.8205C615.611 31.1347 615.149 31.2079 614.718 31.1204Z" fill="#A28D66"/>
<path d="M618.539 35.169C618.022 34.7815 617.877 34.141 618.092 33.5173C618.414 32.6777 618.985 31.7425 619.561 31.4423C620.453 30.9978 621.814 31.0265 622.88 30.4157C624.327 29.5476 625.547 28.2777 626.843 27.1174C627.682 26.369 628.643 25.7139 629.413 24.877C630.109 24.1186 630.954 23.5024 631.772 22.8566C632.146 22.5656 632.555 22.2938 632.875 21.9436C633.197 21.6068 633.458 21.1869 633.901 20.9717C635.145 20.3991 636.56 22.2606 636.435 23.2776C636.347 24.0371 635.23 24.5895 634.648 25.041C633.825 25.6568 632.961 26.2712 632.168 26.9779C630.265 28.6848 628.152 30.2364 626.009 31.8055C625.1 32.4713 624.262 33.2518 623.286 33.9157C622.333 34.5187 621.322 35.0619 620.13 35.416C619.567 35.6305 618.932 35.4722 618.539 35.169Z" fill="#A28D66"/>
<path d="M623.159 39.1489C622.688 38.8502 622.337 38.2844 622.309 37.6624C622.277 36.8008 622.646 35.7636 623.151 35.4473C623.921 34.9574 625.105 35.1456 625.98 34.7157C627.184 34.1261 628.217 33.2231 629.296 32.4342C629.997 31.9289 630.796 31.5358 631.408 30.9334C631.959 30.3844 632.616 29.982 633.235 29.5244C633.507 29.3144 633.813 29.1229 634.025 28.8521C634.224 28.5811 634.353 28.2431 634.662 28.0845C635.46 27.669 637.304 29.1298 637.396 30.0969C637.466 30.8479 636.486 31.4311 635.999 31.7932C635.294 32.3007 634.581 32.8155 633.886 33.3195C632.255 34.6028 630.412 35.5392 628.65 36.574C627.899 37.0053 627.245 37.5936 626.513 38.0715C625.822 38.5285 625.082 38.9055 624.329 39.2726C623.968 39.4557 623.524 39.3807 623.159 39.1489Z" fill="#A28D66"/>
<path d="M625.326 44.1471C624.898 43.8186 624.569 43.2398 624.545 42.6254C624.515 41.7736 624.876 40.7758 625.353 40.503C626.082 40.0848 627.176 40.3825 627.996 40.0524C629.125 39.5988 630.1 38.8328 631.107 38.1807C631.762 37.7649 632.501 37.464 633.064 36.9405C633.569 36.4653 634.169 36.1365 634.729 35.7526C634.971 35.5726 635.252 35.4157 635.435 35.1691C635.605 34.9252 635.707 34.6151 635.98 34.4849C636.685 34.1461 638.575 35.5524 638.709 36.4926C638.813 37.2241 637.873 37.7767 637.411 38.1012C636.754 38.599 636.045 38.9878 635.402 39.4576C633.844 40.5855 632.088 41.313 630.427 42.1391C629.718 42.4831 629.096 42.9876 628.415 43.3836C627.767 43.763 627.083 44.0597 626.399 44.3564C626.056 44.5092 625.662 44.403 625.326 44.1471Z" fill="#A28D66"/>
<path d="M629.106 49.4272C628.717 49.1062 628.342 48.5593 628.205 47.975C628.016 47.1667 628.152 46.2037 628.51 45.9594C629.054 45.5804 629.976 45.9273 630.591 45.6853C631.443 45.3543 632.145 44.7379 632.889 44.2602C633.372 43.954 633.933 43.7805 634.332 43.3817C634.687 43.0187 635.142 42.8135 635.554 42.5485C635.733 42.4248 635.949 42.3302 636.067 42.1391C636.181 41.9501 636.228 41.7018 636.444 41.6295C637.007 41.453 638.832 42.9343 639.048 43.7723C639.217 44.4258 638.449 44.7889 638.089 45.0294C637.567 45.3536 637.025 45.6916 636.521 46.005C635.327 46.8454 633.974 47.2995 632.749 47.8992C632.23 48.1511 631.802 48.5642 631.331 48.8834C630.882 49.1857 630.409 49.4183 629.949 49.6667C629.722 49.7903 629.414 49.6789 629.106 49.4272Z" fill="#A28D66"/>
<path d="M635.842 52.5216C635.508 52.1613 635.21 51.5718 635.082 50.9928C634.91 50.1922 634.905 49.3312 635.117 49.1559C635.448 48.8917 636.187 49.307 636.637 49.1225C637.247 48.873 637.711 48.3291 638.278 47.9312C638.646 47.6736 639.123 47.5665 639.462 47.2375C639.777 46.9402 640.2 46.8217 640.605 46.673C640.791 46.6084 640.989 46.5694 641.146 46.4334C641.296 46.3018 641.405 46.0702 641.631 46.0929C642.248 46.1442 643.063 48.3342 643.098 49.1235C643.128 49.7238 642.65 49.6459 642.4 49.725C642.054 49.8293 641.674 49.8927 641.343 50.0837C640.552 50.5329 639.601 50.8435 638.715 51.3276C638.335 51.5342 638.055 51.9045 637.697 52.1839C637.362 52.4502 636.97 52.644 636.579 52.8444C636.383 52.9476 636.101 52.8016 635.842 52.5216Z" fill="#A28D66"/>
<path d="M670.637 73.5285C670.423 73.0892 670.136 72.4711 670.18 71.8783C670.211 71.034 671.028 70.1432 671.67 70.1568C672.652 70.1444 673.285 71.0878 673.986 71.3911C674.965 71.8328 675.989 72.0955 676.916 72.5549C677.515 72.8497 678.006 73.3222 678.613 73.562C679.161 73.7827 679.598 74.1835 680.049 74.5434C680.25 74.7059 680.44 74.9001 680.685 74.9947C680.921 75.0869 681.222 75.0915 681.368 75.3186C681.763 75.9244 680.521 77.9001 679.758 78.2803C679.172 78.5682 678.736 77.9512 678.428 77.6996C677.988 77.3332 677.585 76.9255 677.108 76.6285C675.969 75.9147 674.941 75.0367 673.787 74.4875C673.296 74.2506 672.753 74.2506 672.274 74.1855C671.833 74.156 671.413 74.062 671.097 74.0915C670.928 74.081 670.813 73.8687 670.637 73.5285Z" fill="#A28D66"/>
<path d="M675.377 69.5389C675.234 69.0613 675.122 68.3978 675.305 67.8297C675.538 67.0269 676.414 66.3079 677.029 66.3971C677.949 66.5395 678.516 67.5229 679.171 67.941C680.11 68.5215 681.116 68.9354 681.995 69.5283C682.564 69.9106 682.993 70.4492 683.574 70.7713C684.097 71.0648 684.483 71.5154 684.893 71.9217C685.077 72.1017 685.246 72.3158 685.48 72.4266C685.709 72.5328 685.997 72.5626 686.126 72.7946C686.455 73.3986 685.165 75.349 684.356 75.6628C683.729 75.9015 683.278 75.2074 682.98 74.9075C682.545 74.4754 682.165 74.004 681.708 73.6327C680.616 72.7407 679.692 71.7122 678.596 70.9909C678.13 70.6999 677.578 70.5991 677.098 70.4891C676.643 70.3729 676.226 70.2417 675.827 70.1883C675.63 70.1386 675.497 69.9215 675.377 69.5389Z" fill="#A28D66"/>
<path d="M678.915 65.7035C678.781 65.241 678.659 64.5877 678.739 64.0044C678.833 63.1962 679.345 62.3886 679.764 62.3677C680.4 62.329 680.881 63.1393 681.38 63.3533C682.095 63.6412 682.875 63.7237 683.567 64.0149C684.017 64.1997 684.354 64.5674 684.809 64.6993C685.221 64.823 685.518 65.1288 685.828 65.3871C685.965 65.5037 686.093 65.6559 686.274 65.7046C686.449 65.7517 686.687 65.7172 686.772 65.8992C687.001 66.3902 685.717 68.3394 685.062 68.7931C684.56 69.1384 684.313 68.6552 684.116 68.478C683.831 68.2201 683.581 67.9203 683.265 67.7334C682.511 67.2822 681.874 66.675 681.118 66.3632C680.798 66.2389 680.433 66.3063 680.119 66.3268C679.807 66.316 679.551 66.3108 679.27 66.302C679.139 66.2952 679.025 66.0672 678.915 65.7035Z" fill="#A28D66"/>
<path d="M660.401 118.299C660.534 118.638 660.656 119.145 660.474 119.421C660.292 119.661 659.922 119.689 659.682 119.873C658.948 120.286 657.415 120.441 656.385 119.95C655.608 119.585 654.89 118.997 654.197 118.276C653.531 117.612 652.749 116.479 652.402 115.608C651.325 113.217 650.628 111.037 649.884 108.806C649.402 107.116 649.426 105.62 649.049 104.207C648.726 102.948 648.556 101.699 648.165 100.649C647.992 100.178 647.786 99.7442 647.487 99.4599C647.163 99.2295 646.861 99.1704 646.617 98.987C646.088 98.5262 645.069 96.1923 646.586 95.55C647.122 95.2932 648.206 95.4893 649.053 96.093C649.945 96.6737 650.467 97.5306 650.808 98.0902C651.698 99.7243 651.922 101.271 652.231 102.723C652.585 104.461 652.702 106.183 652.967 107.633C653.327 109.086 653.75 110.887 654.233 112.345C654.689 113.655 655.301 114.733 655.995 115.127C656.818 115.727 657.954 116.332 659.127 116.922C659.715 117.22 660.161 117.719 660.401 118.299Z" fill="#A28D66"/>
<path d="M429.847 77.642C429.117 77.325 428.674 76.7477 429.075 76.0667C429.601 75.0853 431.586 73.9746 433.185 73.8671C435.634 73.6605 438.029 74.5621 440.375 74.8971C443.633 75.3629 446.887 75.7258 450.07 76.0949C452.288 76.3703 454.349 77.0356 456.385 77.3637C458.226 77.6615 459.998 78.122 461.759 78.3476C462.549 78.439 463.363 78.5338 464.128 78.4534C464.874 78.3614 465.565 78.1335 466.284 78.0821C468.073 77.9079 469.614 79.7091 468.353 80.9921C467.354 82.0054 464.439 82.1218 462.987 81.9539C460.839 81.8311 458.852 81.3414 456.891 80.9476C454.538 80.4708 452.288 79.8148 450.112 79.4239L443.165 78.2461C441.215 77.9442 439.272 77.8734 437.361 77.8145C435.548 77.7594 433.762 77.731 432.035 77.9123C431.188 77.9995 430.419 77.8787 429.847 77.642Z" fill="#A28D66"/>
<path d="M380.103 76.4688C379.677 75.9789 379.591 75.3131 379.96 74.7538C380.479 73.9868 381.586 73.2571 382.432 73.1632C383.725 73.0466 385.174 73.6463 386.611 73.5748C388.589 73.4771 390.606 73.0461 392.715 72.9961C394.073 72.9575 395.479 73.2179 396.822 73.3088C398.033 73.3928 399.167 73.7327 400.266 73.9743C400.762 74.0823 401.261 74.2231 401.752 74.2213C402.231 74.2231 402.701 74.1076 403.152 74.2289C404.305 74.5423 404.776 76.8261 403.829 77.6019C403.082 78.1933 401.418 77.7836 400.569 77.5934C399.319 77.3432 398.164 76.9783 397.02 76.7851C394.354 76.278 391.717 76.1031 388.842 76.3318C387.638 76.4216 386.448 76.7249 385.206 76.8968C384.028 77.0601 382.816 77.1192 381.585 77.122C380.97 77.1253 380.434 76.8601 380.103 76.4688Z" fill="#A28D66"/>
<path d="M226.841 84.3353C226.392 84.0045 225.999 83.4502 226.031 82.8192C226.064 81.9339 226.833 80.8394 227.582 80.5925C228.731 80.1982 230.046 80.6921 231.207 80.5718C232.82 80.4237 234.414 80.0507 236.046 79.9298C237.103 79.8546 238.169 79.9823 239.226 79.9071C240.182 79.8271 241.147 79.9979 242.112 80.1716C242.544 80.2337 242.995 80.393 243.442 80.4084C243.878 80.4206 244.37 80.4099 244.788 80.6209C246.013 81.3674 244.977 83.475 244.221 83.9843C243.708 84.3555 242.852 83.8929 242.262 83.7564C241.451 83.5571 240.578 83.3702 239.689 83.3186C237.545 83.2381 235.327 83.0899 233.132 83.2948C232.201 83.3879 231.315 83.6936 230.431 83.9299C229.599 84.1642 228.752 84.3371 227.973 84.5858C227.58 84.7026 227.193 84.5891 226.841 84.3353Z" fill="#A28D66"/>
<path d="M50.3545 36.7733C50.1325 36.033 50.3678 35.3901 51.0917 35.2031C52.0922 34.9568 53.836 35.2603 54.8926 35.8753C56.5145 36.8139 57.8312 38.4434 59.5764 39.4089C61.9641 40.7538 64.5826 41.6869 67.1642 42.6514C68.826 43.2859 70.487 44.0188 72.1949 44.4686C73.7451 44.8663 75.2496 45.4235 76.7813 45.9021C77.4707 46.1066 78.174 46.3657 78.8842 46.4803C79.5773 46.5872 80.2875 46.6064 80.9551 46.8686C82.7352 47.5603 82.573 49.9182 81.237 50.3732C80.2102 50.7301 78.2039 49.9807 77.0619 49.6259L72.1787 48.0298C68.2392 46.8051 64.4656 45.0779 60.7415 43.2846C59.1684 42.5085 57.5354 41.8849 55.9741 41.0644C54.4811 40.3098 53.0642 39.4009 51.6687 38.4595C50.967 38.0036 50.5301 37.3422 50.3545 36.7733Z" fill="#A28D66"/>
<path d="M50.6631 42.8009C50.5473 42.1749 50.7801 41.5408 51.3763 41.2368C52.2001 40.8189 53.6046 40.7863 54.3948 41.2088C55.6076 41.8467 56.4581 43.1985 57.675 43.952C59.3483 44.9969 61.2076 45.7261 62.9965 46.5285C64.1508 47.0521 65.2673 47.7055 66.4673 48.0696C67.5524 48.3996 68.5734 48.8747 69.6223 49.2808C70.0964 49.4465 70.5771 49.6586 71.0712 49.7374C71.5573 49.7981 72.0567 49.7734 72.5062 49.9834C73.6902 50.5149 73.5631 52.8729 72.534 53.4169C71.7361 53.8448 70.2395 53.2101 69.4192 52.9004C68.2192 52.4885 67.0912 51.9498 65.9245 51.5087C63.1256 50.4282 60.5638 48.9121 57.9835 47.4896C56.8931 46.8814 55.7287 46.4315 54.6183 45.8624C53.5625 45.3271 52.5588 44.7041 51.5513 44.0832C51.0504 43.7798 50.7529 43.2863 50.6631 42.8009Z" fill="#A28D66"/>
<path d="M48.4017 48.0976C48.4025 47.487 48.7512 46.9191 49.3561 46.6778C50.1933 46.3526 51.4265 46.3662 52.0512 46.7538C53.016 47.3441 53.6139 48.6184 54.6586 49.2907C56.079 50.2231 57.7218 50.7987 59.3045 51.4566C60.324 51.8899 61.3153 52.4524 62.3831 52.7523C63.3515 53.0192 64.2585 53.4572 65.1931 53.839C65.6127 54.006 66.0369 54.2155 66.4839 54.304C66.9198 54.3862 67.384 54.3743 67.7787 54.6109C68.8316 55.2409 68.3161 57.5295 67.3722 58.0041C66.6484 58.3693 65.4672 57.708 64.7709 57.4221C63.7726 57.0167 62.8044 56.5463 61.7938 56.1632C59.3601 55.2508 57.0551 53.9755 54.7491 52.7158C53.7754 52.1707 52.7217 51.7823 51.7317 51.2265C50.7865 50.7178 49.9052 50.0767 49.0399 49.4113C48.6011 49.0896 48.4039 48.5658 48.4017 48.0976Z" fill="#A28D66"/>
<path d="M46.074 53.8911C45.8517 53.3541 45.8217 52.6684 46.2354 52.1784C46.8024 51.4719 48.1827 51.0415 49.049 51.3223C50.3636 51.7459 51.2584 52.992 52.3769 53.6619C53.9201 54.5988 55.562 55.3332 57.1037 56.1806C58.0982 56.7313 59.0138 57.423 60.0378 57.8512C60.9652 58.2247 61.7991 58.7576 62.671 59.1958C63.0636 59.3809 63.4581 59.6302 63.8806 59.7153C64.2949 59.7949 64.7321 59.8011 65.0981 60.0141C66.0463 60.5715 65.7838 62.9251 64.8002 63.4177C64.0304 63.8119 62.7213 63.0939 62.0163 62.7451C60.9857 62.2579 60.0282 61.6758 59.0517 61.165C56.689 59.9504 54.6323 58.3759 52.4637 57.0894C51.5444 56.543 50.5458 56.198 49.5979 55.8062C48.7 55.4534 47.8315 55.0384 46.9723 54.7786C46.5451 54.616 46.2535 54.3148 46.074 53.8911Z" fill="#A28D66"/>
<path d="M16.3494 37.5855C15.6471 37.8453 15.0867 37.4653 14.7578 36.9215C14.3485 36.0823 13.6436 35.6125 13.6851 34.6814C13.7122 34.0074 14.0966 32.8407 14.921 32.0757C15.6805 31.3633 16.5234 31.0299 17.2262 30.697C18.2037 30.2406 19.1163 29.9323 19.9117 29.5861C20.6536 29.2733 21.4135 28.822 22.2061 28.4146C23.2296 27.8815 24.3598 27.4726 25.3741 26.8543C26.2967 26.294 27.3309 25.9229 28.3911 25.5621C28.8677 25.3975 29.386 25.2791 29.8655 25.0676C30.336 24.8663 30.8197 24.5794 31.4082 24.5914C33.2223 24.7199 32.8257 27.1727 32.3622 27.8724C32.0659 28.423 31.0359 28.3845 30.3416 28.6019C29.4097 28.8636 28.4106 29.1741 27.4592 29.628C25.1628 30.6875 22.7378 31.8717 20.0409 32.7152C19.0207 33.0455 18.2405 33.609 17.9269 34.069C17.6626 34.4276 17.6731 34.6151 17.4839 36.0635C17.3906 36.7356 16.8881 37.4026 16.3494 37.5855Z" fill="#A28D66"/>
<path d="M21.8915 73.6502C21.4616 73.318 21.1655 72.7225 21.1551 72.1053C21.153 71.2547 21.4665 70.2822 21.9021 70.0206C22.569 69.6079 23.6469 69.8725 24.4287 69.4939C25.5003 68.9833 26.393 68.1412 27.3368 67.4179C27.947 66.9549 28.657 66.5952 29.1802 66.0293C29.6482 65.5153 30.2301 65.1467 30.7696 64.7221C31.006 64.5278 31.2756 64.3521 31.4518 64.0971C31.6153 63.8418 31.706 63.5256 31.9825 63.3835C32.6965 63.009 34.5904 64.4006 34.7584 65.3213C34.8887 66.0376 34.0005 66.5881 33.5696 66.9274C32.9457 67.4058 32.3098 67.8935 31.6942 68.3646C30.2537 69.5782 28.5884 70.4544 26.9911 71.4093C26.3096 71.8053 25.7203 72.3566 25.0463 72.796C24.407 73.2129 23.716 73.549 22.9972 73.8586C22.648 74.0225 22.2228 73.9112 21.8915 73.6502Z" fill="#A28D66"/>
<path d="M24.467 78.3074C24.0064 77.9829 23.6982 77.3969 23.7126 76.7704C23.7419 75.9092 24.1342 74.9037 24.6314 74.6141C25.395 74.1606 26.5654 74.3769 27.441 73.9568C28.644 73.3828 29.6689 72.4744 30.7397 71.6802C31.4357 71.1704 32.2276 70.7659 32.8298 70.1543C33.3721 69.5999 34.0211 69.1825 34.63 68.7129C34.8972 68.4983 35.1985 68.2992 35.4056 68.0238C35.597 67.7474 35.7194 67.4079 36.0246 67.2417C36.808 66.8095 38.6958 68.2122 38.8102 69.179C38.8988 69.9319 37.9232 70.5479 37.4418 70.9214C36.7449 71.4469 36.0367 71.979 35.3481 72.4972C33.7301 73.8158 31.8852 74.7805 30.1047 75.8262C29.3458 76.2618 28.6807 76.8469 27.928 77.3192C27.2136 77.7669 26.4528 78.1383 25.6589 78.4786C25.2805 78.6569 24.823 78.5592 24.467 78.3074Z" fill="#A28D66"/>
<path d="M29.5038 81.2508C29.0798 80.9202 28.7611 80.3378 28.7343 79.7226C28.7001 78.8729 29.0152 77.8945 29.4516 77.6299C30.1236 77.2218 31.1832 77.5071 31.9579 77.1553C33.0199 76.6802 33.9126 75.8859 34.8542 75.2066C35.4662 74.7728 36.1726 74.4503 36.7064 73.9159C37.1829 73.4298 37.7717 73.0948 38.3212 72.7047C38.5662 72.5255 38.8429 72.3708 39.0294 72.1249C39.2083 71.8834 39.3191 71.5757 39.6064 71.4525C40.3613 71.1272 42.0927 72.7106 42.2094 73.6206C42.2989 74.3228 41.4161 74.7698 40.9851 75.0739C40.3691 75.5226 39.708 75.9017 39.1083 76.3611C37.6687 77.4762 36.0167 78.2667 34.4422 79.1482C33.7687 79.5145 33.1895 80.0399 32.5324 80.452C31.9142 80.8491 31.2409 81.1549 30.5646 81.46C30.2305 81.6152 29.8306 81.5043 29.5038 81.2508Z" fill="#A28D66"/>
<path d="M31.2289 85.5132C30.8217 85.2031 30.4421 84.6584 30.3128 84.0697C30.1327 83.254 30.2913 82.2779 30.6636 82.0152C31.2356 81.6121 32.2002 81.9196 32.8537 81.6402C33.754 81.2586 34.5008 80.5937 35.2888 80.0609C35.8024 79.7216 36.4005 79.5069 36.8336 79.076C37.2162 78.6792 37.7088 78.4424 38.1539 78.1452C38.3499 78.0069 38.5856 77.8985 38.723 77.6936C38.8566 77.4908 38.9241 77.2256 39.1603 77.1395C39.7845 76.9223 41.5469 78.4727 41.7323 79.328C41.8768 79.9908 41.0893 80.3551 40.7164 80.6081C40.1721 80.955 39.6128 81.3106 39.0865 81.6496C37.8426 82.5563 36.4217 83.1004 35.1218 83.7755C34.5718 84.0605 34.1132 84.5037 33.6099 84.8521C33.1299 85.1845 32.6213 85.4455 32.1213 85.7216C31.8755 85.856 31.5455 85.7576 31.2289 85.5132Z" fill="#A28D66"/>
<path d="M65.4543 98.1837C64.7908 97.6075 64.3356 96.4891 65.9402 95.3617C66.0615 95.2766 66.5993 95.3704 66.8931 95.2585C70.3525 94.1753 72.606 94.1198 73.9138 93.9021C76.0233 93.6233 77.1997 93.469 79.3093 93.1902C81.0813 92.9129 80.1866 93.2512 82.1909 92.89C83.5361 92.6633 83.875 92.43 85.2342 92.258C87.6167 92.0049 88.0178 92.0747 90.4025 92.0163C91.5423 92.0111 92.6894 92.0143 93.8345 91.9533C95.2957 91.8756 96.6271 92.2846 97.5584 93.442C97.909 93.88 97.3599 95.5204 97.0287 95.88C96.4671 96.4829 95.7389 96.0421 95.1776 95.786C93.9161 95.1985 92.4736 94.8962 91.0698 94.878C88.0617 94.8896 87.8678 95.0919 84.9021 95.4808C83.382 95.6955 82.0171 95.8532 80.3803 96.1955C78.0165 96.5809 78.6096 96.6227 76.2949 96.9195C74.6245 97.1255 74.8425 96.9997 73.1998 97.245C72.2976 97.3968 72.2321 97.4873 71.3676 97.7478C71.236 97.7761 70.3157 97.9836 70.1808 97.9886C69.943 97.9978 68.8402 98.2102 68.6522 98.3187C68.5353 98.3636 67.9281 98.792 67.353 98.9809C66.7625 99.1561 66.1635 99.1604 65.4543 98.1837Z" fill="#A28D66"/>
<path d="M135.759 87.5909C135.9 88.4816 135.757 89.5059 134.772 89.874C134.699 89.8988 134.42 89.6425 134.24 89.6513C132.124 89.7375 130.642 89.8953 129.794 89.9981C128.379 90.2094 127.584 90.3296 126.17 90.5409C124.887 90.7016 125.473 90.4106 124.186 90.5765C123.317 90.6863 123.113 90.9117 122.249 91.0515C120.742 91.3141 120.474 91.2675 118.966 91.5458C118.246 91.6799 117.527 91.8491 116.84 92.1225C115.967 92.4761 115.086 92.4046 114.159 91.5887C113.804 91.2737 113.602 89.5773 113.706 89.1377C113.88 88.4017 114.518 88.6084 114.965 88.7222C115.979 88.9729 117.015 88.9905 117.976 88.8196C120.042 88.4558 120.14 88.2533 122.208 87.8582C123.242 87.6656 124.306 87.6561 125.343 87.4895C126.903 87.2443 126.498 87.1543 128.064 86.9204C129.209 86.7543 129.06 86.8731 130.204 86.6973C130.841 86.6109 130.884 86.5178 131.516 86.3441C131.606 86.3173 132.293 86.2444 132.392 86.2551C132.562 86.2723 133.399 86.2715 133.566 86.2305C133.739 86.1754 135.749 85.2111 135.759 87.5909Z" fill="#A28D66"/>
</g>
<defs>
<clipPath id="clip0_2005_181">
<rect width="700" height="125" fill="white"/>
</clipPath>
</defs>
</svg>
